grf
version=1
nRows=21
nColumns=46
inDegrees=yes
endheader
time	ground_force_1_vx	ground_force_1_vy	ground_force_1_vz	ground_force_1_px	ground_force_1_py	ground_force_1_pz	ground_moment_1_mx	ground_moment_1_my	ground_moment_1_mz	ground_force_2_vx	ground_force_2_vy	ground_force_2_vz	ground_force_2_px	ground_force_2_py	ground_force_2_pz	ground_moment_2_mx	ground_moment_2_my	ground_moment_2_mz	ground_force_3_vx	ground_force_3_vy	ground_force_3_vz	ground_force_3_px	ground_force_3_py	ground_force_3_pz	ground_moment_3_mx	ground_moment_3_my	ground_moment_3_mz	ground_force_4_vx	ground_force_4_vy	ground_force_4_vz	ground_force_4_px	ground_force_4_py	ground_force_4_pz	ground_moment_4_mx	ground_moment_4_my	ground_moment_4_mz	ground_force_5_vx	ground_force_5_vy	ground_force_5_vz	ground_force_5_px	ground_force_5_py	ground_force_5_pz	ground_moment_5_mx	ground_moment_5_my	ground_moment_5_mz
0.930000	0.000000	0.000000	0.000000	0.000000	0.000000	0.000000	0.000000	0.000000	0.000000	0.000000	0.000000	0.000000	0.000000	0.000000	0.000000	0.000000	0.000000	0.000000	0.000000	0.000000	0.000000	0.000000	0.000000	0.000000	0.000000	0.000000	0.000000	5.403073	427.331604	-52.179658	0.205809	0.000000	-1.040485	0.000000	3.338905	0.000000	-4.062014	462.142639	53.826439	0.234885	0.000000	-1.411460	0.000000	-3.180085	-0.000000
0.930500	0.000000	0.000000	0.000000	0.000000	0.000000	0.000000	0.000000	0.000000	0.000000	0.000000	0.000000	0.000000	0.000000	0.000000	0.000000	0.000000	0.000000	0.000000	0.000000	0.000000	0.000000	0.000000	0.000000	0.000000	0.000000	0.000000	0.000000	5.485911	427.332275	-52.018617	0.205981	0.000000	-1.040153	0.000000	3.258045	0.000000	-4.222716	462.940033	53.665733	0.234781	0.000000	-1.411636	-0.000000	-3.139190	-0.000000
0.931000	0.000000	0.000000	0.000000	0.000000	0.000000	0.000000	0.000000	0.000000	0.000000	0.000000	0.000000	0.000000	0.000000	0.000000	0.000000	0.000000	0.000000	0.000000	0.000000	0.000000	0.000000	0.000000	0.000000	0.000000	0.000000	0.000000	0.000000	5.568750	427.332947	-51.857571	0.206152	0.000000	-1.039822	0.000000	3.177186	0.000000	-4.383419	463.737427	53.505028	0.234678	0.000000	-1.411810	0.000000	-3.098295	-0.000000
0.931500	0.000000	0.000000	0.000000	0.000000	0.000000	0.000000	0.000000	0.000000	0.000000	0.000000	0.000000	0.000000	0.000000	0.000000	0.000000	0.000000	0.000000	0.000000	0.000000	0.000000	0.000000	0.000000	0.000000	0.000000	0.000000	0.000000	0.000000	5.486684	427.334473	-51.938859	0.205984	0.000000	-1.039834	0.000000	3.253278	0.000000	-4.222716	464.054810	53.745831	0.234429	0.000000	-1.411574	-0.000000	-3.126166	-0.000000
0.932000	0.000000	0.000000	0.000000	0.000000	0.000000	0.000000	0.000000	0.000000	0.000000	0.000000	0.000000	0.000000	0.000000	0.000000	0.000000	0.000000	0.000000	0.000000	0.000000	0.000000	0.000000	0.000000	0.000000	0.000000	0.000000	0.000000	0.000000	5.404617	427.335968	-52.020142	0.205816	0.000000	-1.039845	0.000000	3.329396	0.000000	-4.062014	464.372192	53.986633	0.234180	0.000000	-1.411338	0.000000	-3.154217	-0.000000
0.932500	0.000000	0.000000	0.000000	0.000000	0.000000	0.000000	0.000000	0.000000	0.000000	0.000000	0.000000	0.000000	0.000000	0.000000	0.000000	0.000000	0.000000	0.000000	0.000000	0.000000	0.000000	0.000000	0.000000	0.000000	0.000000	0.000000	0.000000	5.566432	427.496429	-52.180169	0.205871	0.000000	-1.039738	0.000000	3.305640	0.000000	-4.142110	464.695404	53.826099	0.234634	0.000000	-1.411912	0.000000	-3.098329	0.000000
0.933000	0.000000	0.000000	0.000000	0.000000	0.000000	0.000000	0.000000	0.000000	0.000000	0.000000	0.000000	0.000000	0.000000	0.000000	0.000000	0.000000	0.000000	0.000000	0.000000	0.000000	0.000000	0.000000	0.000000	0.000000	0.000000	0.000000	0.000000	5.728247	427.656891	-52.340196	0.205926	0.000000	-1.039631	0.000000	3.281834	0.000000	-4.222206	465.018616	53.665565	0.235088	0.000000	-1.412485	0.000000	-3.042710	-0.000000
0.933500	0.000000	0.000000	0.000000	0.000000	0.000000	0.000000	0.000000	0.000000	0.000000	0.000000	0.000000	0.000000	0.000000	0.000000	0.000000	0.000000	0.000000	0.000000	0.000000	0.000000	0.000000	0.000000	0.000000	0.000000	0.000000	0.000000	0.000000	5.646182	428.452911	-52.501241	0.206183	0.000000	-1.039797	0.000000	3.307197	0.000000	-4.463771	464.218384	53.825928	0.234966	0.000000	-1.411725	0.000000	-2.987064	-0.000000
0.934000	0.000000	0.000000	0.000000	0.000000	0.000000	0.000000	0.000000	0.000000	0.000000	0.000000	0.000000	0.000000	0.000000	0.000000	0.000000	0.000000	0.000000	0.000000	0.000000	0.000000	0.000000	0.000000	0.000000	0.000000	0.000000	0.000000	0.000000	5.564116	429.248932	-52.662286	0.206439	0.000000	-1.039962	0.000000	3.332497	0.000000	-4.705336	463.418182	53.986294	0.234844	0.000000	-1.410962	0.000000	-2.931101	-0.000000
0.934500	0.000000	0.000000	0.000000	0.000000	0.000000	0.000000	0.000000	0.000000	0.000000	0.000000	0.000000	0.000000	0.000000	0.000000	0.000000	0.000000	0.000000	0.000000	0.000000	0.000000	0.000000	0.000000	0.000000	0.000000	0.000000	0.000000	0.000000	5.565660	428.772461	-52.259419	0.206174	0.000000	-1.039522	0.000000	3.272157	0.000000	-4.464025	463.895020	53.745491	0.234683	0.000000	-1.411617	0.000000	-3.027108	0.000000
0.935000	0.000000	0.000000	0.000000	0.000000	0.000000	0.000000	0.000000	0.000000	0.000000	0.000000	0.000000	0.000000	0.000000	0.000000	0.000000	0.000000	0.000000	0.000000	0.000000	0.000000	0.000000	0.000000	0.000000	0.000000	0.000000	0.000000	0.000000	5.567205	428.295990	-51.856553	0.205907	0.000000	-1.039080	0.000000	3.211627	0.000000	-4.222715	464.371887	53.504692	0.234523	0.000000	-1.412272	0.000000	-3.122698	0.000000
0.935500	0.000000	0.000000	0.000000	0.000000	0.000000	0.000000	0.000000	0.000000	0.000000	0.000000	0.000000	0.000000	0.000000	0.000000	0.000000	0.000000	0.000000	0.000000	0.000000	0.000000	0.000000	0.000000	0.000000	0.000000	0.000000	0.000000	0.000000	5.405390	427.813477	-52.017594	0.206100	0.000000	-1.038855	0.000000	3.180382	0.000000	-4.705589	462.939209	53.584961	0.234659	0.000000	-1.411635	0.000000	-3.038480	-0.000000
0.936000	0.000000	0.000000	0.000000	0.000000	0.000000	0.000000	0.000000	0.000000	0.000000	0.000000	0.000000	0.000000	0.000000	0.000000	0.000000	0.000000	0.000000	0.000000	0.000000	0.000000	0.000000	0.000000	0.000000	0.000000	0.000000	0.000000	0.000000	5.243575	427.330933	-52.178639	0.206293	0.000000	-1.038630	0.000000	3.149122	0.000000	-5.188463	461.506500	53.665226	0.234796	0.000000	-1.410993	0.000000	-2.953559	-0.000000
0.936500	0.000000	0.000000	0.000000	0.000000	0.000000	0.000000	0.000000	0.000000	0.000000	0.000000	0.000000	0.000000	0.000000	0.000000	0.000000	0.000000	0.000000	0.000000	0.000000	0.000000	0.000000	0.000000	0.000000	0.000000	0.000000	0.000000	0.000000	5.488228	427.491394	-51.936818	0.206433	0.000000	-1.038781	0.000000	3.082327	0.000000	-4.705080	462.301392	53.745659	0.234526	0.000000	-1.411131	-0.000000	-2.973393	-0.000000
0.937000	0.000000	0.000000	0.000000	0.000000	0.000000	0.000000	0.000000	0.000000	0.000000	0.000000	0.000000	0.000000	0.000000	0.000000	0.000000	0.000000	0.000000	0.000000	0.000000	0.000000	0.000000	0.000000	0.000000	0.000000	0.000000	0.000000	0.000000	5.732880	427.651855	-51.694997	0.206574	0.000000	-1.038933	0.000000	3.015678	0.000000	-4.221697	463.096313	53.826096	0.234257	0.000000	-1.411267	-0.000000	-2.993087	0.000000
0.937500	0.000000	0.000000	0.000000	0.000000	0.000000	0.000000	0.000000	0.000000	0.000000	0.000000	0.000000	0.000000	0.000000	0.000000	0.000000	0.000000	0.000000	0.000000	0.000000	0.000000	0.000000	0.000000	0.000000	0.000000	0.000000	0.000000	0.000000	5.729791	428.454590	-52.258904	0.206277	0.000000	-1.039304	0.000000	3.168545	0.000000	-4.222206	462.301758	53.986801	0.234638	0.000000	-1.410969	0.000000	-3.030087	-0.000000
0.938000	0.000000	0.000000	0.000000	0.000000	0.000000	0.000000	0.000000	0.000000	0.000000	0.000000	0.000000	0.000000	0.000000	0.000000	0.000000	0.000000	0.000000	0.000000	0.000000	0.000000	0.000000	0.000000	0.000000	0.000000	0.000000	0.000000	0.000000	5.726703	429.257355	-52.822816	0.205982	0.000000	-1.039675	0.000000	3.321679	0.000000	-4.222715	461.507202	54.147507	0.235020	0.000000	-1.410670	0.000000	-3.066890	0.000000
0.938500	0.000000	0.000000	0.000000	0.000000	0.000000	0.000000	0.000000	0.000000	0.000000	0.000000	0.000000	0.000000	0.000000	0.000000	0.000000	0.000000	0.000000	0.000000	0.000000	0.000000	0.000000	0.000000	0.000000	0.000000	0.000000	0.000000	0.000000	5.725158	429.098572	-52.582524	0.205952	0.000000	-1.039004	0.000000	3.433607	0.000000	-4.222461	461.825073	54.147675	0.234689	0.000000	-1.410597	0.000000	-3.071626	-0.000000
0.939000	0.000000	0.000000	0.000000	0.000000	0.000000	0.000000	0.000000	0.000000	0.000000	0.000000	0.000000	0.000000	0.000000	0.000000	0.000000	0.000000	0.000000	0.000000	0.000000	0.000000	0.000000	0.000000	0.000000	0.000000	0.000000	0.000000	0.000000	5.723614	428.939819	-52.342233	0.205922	0.000000	-1.038333	0.000000	3.545522	0.000000	-4.222206	462.142975	54.147842	0.234359	0.000000	-1.410523	0.000000	-3.076340	-0.000000
0.939500	0.000000	0.000000	0.000000	0.000000	0.000000	0.000000	0.000000	0.000000	0.000000	0.000000	0.000000	0.000000	0.000000	0.000000	0.000000	0.000000	0.000000	0.000000	0.000000	0.000000	0.000000	0.000000	0.000000	0.000000	0.000000	0.000000	0.000000	5.483595	428.936615	-52.583035	0.205972	0.000000	-1.038823	0.000000	3.373827	0.000000	-4.544377	461.983521	53.746338	0.234449	0.000000	-1.410455	-0.000000	-3.104444	-0.000000
0.940000	0.000000	0.000000	0.000000	0.000000	0.000000	0.000000	0.000000	0.000000	0.000000	0.000000	0.000000	0.000000	0.000000	0.000000	0.000000	0.000000	0.000000	0.000000	0.000000	0.000000	0.000000	0.000000	0.000000	0.000000	0.000000	0.000000	0.000000	5.243575	428.933411	-52.823838	0.206022	0.000000	-1.039313	0.000000	3.201872	0.000000	-4.866549	461.824097	53.344833	0.234539	0.000000	-1.410387	-0.000000	-3.132574	-0.000000
